<?xml version="1.0" encoding="UTF-8" standalone="no"?>
<svg
   xmlns="http://www.w3.org/2000/svg"
   viewBox="0 0 32 32"
   height="32"
   width="32"
   version="1.1"
>
   <path
      fill="#000"
      d="m 22.161532,0.0012055 c -3.024788,-0.107245 -4.413486,6.973983 -3.701771,8.930711 0.34952,0.95984 1.196853,2.8485425 1.600483,4.6624405 0.334896,1.499476 0.266314,2.972399 0.156144,3.787459 0.887206,-0.110169 1.784612,-0.185659 2.703016,-0.185659 1.189441,0 2.3469,0.120871 3.485644,0.305624 -0.0234,-0.491863 -0.0457,-0.893163 -0.0457,-1.133001 0,-1.565772 0.773822,-4.249678 1.068258,-5.550751 C 28.24559,7.1897455 25.185346,0.1079625 22.161533,0.0012055 Z M 9.8384834,6.8334845 C 6.8141824,6.9402425 3.7544254,14.020075 4.57241,17.650309 c 0.2944355,1.301073 1.0673054,3.98593 1.0673054,5.551703 0,0.190116 -0.01436,0.486684 -0.03142,0.845466 1.134356,-0.182316 2.288699,-0.30372 3.473266,-0.30372 0.90573,0 1.7932106,0.07319 2.6696926,0.179947 -0.08677,-0.847233 -0.111282,-2.157926 0.188516,-3.498972 0.404117,-1.813899 1.251937,-3.700674 1.600482,-4.661489 C 14.250505,13.80749 12.862783,6.7262405 9.8384834,6.8334845 Z M 22.919404,18.067329 c -0.979826,0 -1.936376,0.09124 -2.879155,0.219936 -0.350007,1.532624 -0.960487,3.867786 0.128534,5.518379 1.172867,1.777825 4.092102,1.777978 5.413649,0.21708 0.893056,-1.055386 0.926996,-3.695776 0.8607,-5.637393 -1.147519,-0.19304 -2.320637,-0.318002 -3.523728,-0.318002 z M 9.0806104,24.614931 c -1.199678,0 -2.369148,0.123499 -3.513254,0.318001 -0.07946,1.959166 -0.08961,4.813551 0.849274,5.922072 1.322035,1.561385 4.2412456,1.560745 5.4146006,-0.21708 1.163605,-1.764663 0.391329,-4.302379 0.06569,-5.812579 -0.924742,-0.122844 -1.858426,-0.210414 -2.8163156,-0.210414 z"
   />
</svg>