<?xml version="1.0" encoding="iso-8859-1"?>
<!-- Generator: Adobe Illustrator 18.0.0, SVG Export Plug-In . SVG Version: 6.00 Build 0)  -->
<!DOCTYPE svg PUBLIC "-//W3C//DTD SVG 1.1//EN" "http://www.w3.org/Graphics/SVG/1.1/DTD/svg11.dtd">
<svg xmlns="http://www.w3.org/2000/svg" version="1.1" id="Capa_1" x="0px" y="0px" viewBox="0 0 479.255 479.255"
     style="enable-background:new 0 0 479.255 479.255;" xml:space="preserve" width="512px" height="512px">
<path d="M451.471,128.974H280.904c-17.036,0-30.851-13.814-30.851-30.858v-3.876c0-15.336-12.435-27.77-27.786-27.77H90.275  c-15.319,0-27.754,12.434-27.754,27.77v3.876c0,17.044-13.814,30.858-30.851,30.858h-3.885C12.435,128.974,0,141.425,0,156.76  v222.645c0,18.44,14.957,33.38,33.364,33.38h73.254h35.619h303.639c18.408,0,33.365-14.94,33.365-33.38V226.956l0.014,0.016V156.76  C479.255,141.425,466.82,128.974,451.471,128.974z M320.999,332.778l-9.409,9.395c-17.809,17.823-41.498,27.635-66.698,27.635  c-20.173,0-39.323-6.391-55.32-18.021l-22.946,22.946c-2.539,2.545-6.368,3.317-9.693,1.932c-3.31-1.38-5.485-4.61-5.485-8.203  v-70.284c0-4.917,3.972-8.889,8.889-8.889h70.275c3.594,0,6.839,2.168,8.212,5.484c1.386,3.325,0.631,7.139-1.922,9.678  l-20.646,20.66c8.62,4.988,18.408,7.7,28.636,7.7c15.319,0,29.724-5.958,40.535-16.794l9.393-9.4c7.235-7.217,18.929-7.217,26.179,0  C328.217,313.835,328.217,325.545,320.999,332.778z M327.807,234.197c0,4.901-3.972,8.89-8.889,8.89h-70.276  c-3.594,0-6.839-2.168-8.211-5.492c-1.372-3.318-0.615-7.149,1.922-9.686L263,207.286c-21.922-12.64-50.447-9.652-69.171,9.071  l-9.393,9.401c-3.625,3.608-8.337,5.413-13.082,5.413c-4.727,0-9.456-1.805-13.08-5.413c-7.219-7.219-7.219-18.945,0-26.162  l9.409-9.401c33.19-33.2,85.121-36.319,121.985-9.591l22.978-22.979c2.537-2.545,6.352-3.293,9.677-1.915  c3.326,1.363,5.485,4.61,5.485,8.211V234.197z" fill="#000000"/>
<g>
</g>
<g>
</g>
<g>
</g>
<g>
</g>
<g>
</g>
<g>
</g>
<g>
</g>
<g>
</g>
<g>
</g>
<g>
</g>
<g>
</g>
<g>
</g>
<g>
</g>
<g>
</g>
<g>
</g>
</svg>
