<svg version="1.1" class="eye__2evAX" width="25" height="20" xmlns="http://www.w3.org/2000/svg" viewBox="0 0 32 32"><path fill="#2196f3" d="m 15.66721,11.827435 c -1.927385,0.28021 -3.558093,2.20192 -2.924878,4.17253 0.576541,-1.42335 1.783355,-2.38119 3.208105,-2.30596 1.144396,0.0605 2.380632,1.27757 2.353101,2.25769 0.10424,1.56969 -0.891432,2.73539 -2.303643,3.3059 3.269472,1.06552 5.127714,-3.10814 3.630038,-5.55889 -0.839312,-1.37333 -2.398916,-2.05369 -3.962723,-1.87127 z m 15.783149,3.47746 c -0.06459,-0.0818 -1.615086,-2.02686 -4.27327,-3.97975 -3.552209,-2.60971 -7.417207,-3.98913 -11.177124,-3.98913 -3.759988,0 -7.6249855,1.37942 -11.177124,3.98913 -2.6581143,1.95282 -4.20861092,3.89792 -4.2732704,3.97975 L 0,15.999965 l 0.5495706,0.69514 c 0.0646595,0.0818 1.6151561,2.02693 4.2732704,3.97982 3.5522085,2.60977 7.417136,3.98906 11.177124,3.98906 3.759917,0 7.624915,-1.37929 11.177124,-3.98906 2.658184,-1.95289 4.208681,-3.898 4.27327,-3.97982 L 32,15.999965 Z m -15.450394,6.55856 c -3.233114,0 -5.863417,-2.63038 -5.863417,-5.86342 0,-3.23311 2.630303,-5.86342 5.863417,-5.86342 3.233114,0 5.863487,2.63031 5.863487,5.86342 0,3.23304 -2.630373,5.86342 -5.863487,5.86342 z M 2.9201849,15.999965 c 0.644283,-0.69157 1.7737574,-1.80486 3.2808208,-2.90568 0.9745158,-0.71175 2.2026257,-1.48381 3.6268157,-2.12298 -1.1200873,1.37228 -1.7928822,3.12327 -1.7928822,5.02859 0,1.90532 0.6727949,3.65631 1.7928822,5.02859 -1.4241199,-0.63917 -2.6522999,-1.4113 -3.6267456,-2.12305 -1.5073436,-1.10068 -2.6368881,-2.21411 -3.2808909,-2.90547 z m 22.8786691,2.90568 c -0.974586,0.71175 -2.202696,1.48388 -3.626745,2.12305 1.120017,-1.37228 1.792952,-3.12327 1.792952,-5.02859 0,-1.90532 -0.672865,-3.65631 -1.792952,-5.02859 1.42419,0.63917 2.652299,1.4113 3.626745,2.12298 1.507274,1.10089 2.636748,2.21432 3.280751,2.90561 -0.644143,0.69143 -1.773757,1.80479 -3.280751,2.90554 z"></path><path fill="#2196f3" d="M1.5 0 L32 30.5 L30.5 32 L0 1.5Z"></path></svg>